<?xml version="1.0" standalone="no"?>
<!DOCTYPE svg PUBLIC "-//W3C//DTD SVG 20010904//EN"
 "http://www.w3.org/TR/2001/REC-SVG-20010904/DTD/svg10.dtd">
<svg version="1.0" xmlns="http://www.w3.org/2000/svg"
 width="518.000000pt" height="120.000000pt" viewBox="0 0 518.000000 120.000000"
 preserveAspectRatio="xMidYMid meet">

<g transform="translate(0.000000,120.000000) scale(0.100000,-0.100000)"
fill="#000000" stroke="none">
<path d="M182 1184 c-17 -12 -22 -24 -20 -47 3 -30 15 -39 156 -124 85 -51
170 -97 190 -103 50 -14 293 -13 349 2 37 9 64 28 125 86 121 116 139 159 78
192 -12 6 -171 10 -437 10 -367 0 -421 -2 -441 -16z"/>
<path d="M2150 1090 c-18 -18 -20 -33 -20 -134 0 -149 -3 -146 172 -146 l128
0 0 35 0 35 -115 0 c-108 0 -115 1 -115 20 0 19 7 20 115 20 l115 0 0 35 0 34
-112 3 c-109 3 -113 4 -116 26 -3 22 -2 22 112 22 l116 0 0 35 0 35 -130 0
c-117 0 -132 -2 -150 -20z m260 -10 c0 -18 -8 -20 -112 -22 l-113 -3 -3 -37
-3 -38 119 0 c115 0 120 -1 115 -20 -5 -19 -14 -20 -120 -20 l-114 0 3 -37 3
-37 113 3 112 3 0 -27 0 -27 -118 4 c-82 2 -124 7 -135 17 -14 11 -17 33 -17
122 0 139 0 139 157 139 106 0 113 -1 113 -20z"/>
<path d="M2440 1033 c0 -43 3 -88 6 -100 9 -33 121 -123 152 -123 18 0 47 18
90 56 l62 56 0 78 c0 101 -4 110 -46 110 l-34 0 0 -81 0 -82 -37 -32 -38 -32
-37 30 c-37 30 -38 32 -38 98 0 89 -5 99 -46 99 l-34 0 0 -77z m60 -12 l0 -79
48 -40 48 -40 47 44 47 45 0 75 c0 67 2 74 20 74 18 0 20 -7 20 -88 l0 -88
-56 -47 c-31 -26 -66 -47 -79 -47 -13 0 -48 21 -79 47 l-56 47 0 88 c0 81 2
88 20 88 18 0 20 -7 20 -79z"/>
<path d="M2781 1084 c-18 -23 -21 -41 -21 -130 0 -145 -1 -144 175 -144 142 0
142 0 129 48 -6 21 -11 22 -115 22 -102 0 -109 1 -109 20 0 19 7 20 109 20 66
0 112 4 116 11 4 5 4 21 1 35 -6 24 -8 24 -116 24 l-110 0 0 25 0 25 115 0
c121 0 121 0 109 48 -6 21 -10 22 -134 22 -127 0 -129 0 -149 -26z m269 -4 c0
-19 -7 -20 -115 -20 l-115 0 0 -40 0 -40 115 0 c108 0 115 -1 115 -20 0 -19
-7 -20 -115 -20 l-115 0 0 -37 0 -38 116 3 116 4 -4 -24 c-3 -22 -6 -23 -116
-26 -108 -3 -113 -2 -137 22 -23 23 -25 33 -25 110 0 94 10 132 37 139 10 3
69 5 131 6 106 1 112 0 112 -19z"/>
<path d="M3092 1098 c-8 -8 -12 -56 -12 -150 l0 -138 35 0 35 0 0 87 0 87 89
-88 c69 -67 95 -87 113 -84 23 3 23 5 26 151 l3 147 -36 0 -35 0 0 -92 0 -93
-93 93 c-51 50 -97 92 -103 92 -5 0 -15 -5 -22 -12z m125 -100 l103 -103 0
103 c0 95 1 102 20 102 19 0 20 -7 20 -135 0 -121 -2 -135 -17 -135 -10 0 -62
44 -115 97 l-98 98 0 -103 c0 -95 -1 -102 -20 -102 -19 0 -20 7 -20 133 0 123
3 147 19 147 3 0 52 -46 108 -102z"/>
<path d="M3390 1075 l0 -34 58 -3 57 -3 3 -112 3 -113 34 0 35 0 0 115 0 115
60 0 c52 0 60 2 60 19 0 50 -3 51 -161 51 l-149 0 0 -35z m290 5 c0 -16 -8
-19 -57 -22 l-58 -3 -3 -117 c-2 -111 -4 -118 -23 -118 -20 0 -20 5 -18 118
l2 117 -56 0 c-52 0 -57 2 -57 23 0 22 2 22 135 22 127 0 135 -1 135 -20z"/>
<path d="M1510 490 c0 -240 5 -265 55 -288 32 -15 362 -17 399 -2 14 5 35 24
46 42 18 30 20 51 20 251 l0 217 -55 0 -55 0 0 -210 0 -210 -50 0 -50 0 0 210
0 210 -50 0 -50 0 -2 -207 -3 -208 -52 -3 -53 -3 0 210 0 211 -50 0 -50 0 0
-220z"/>
<path d="M2114 676 l-34 -34 0 -192 0 -192 34 -34 34 -34 192 0 192 0 34 34
34 34 0 192 0 192 -34 34 -34 34 -192 0 -192 0 -34 -34z m381 -226 l0 -155
-155 0 -155 0 -3 145 c-1 79 0 150 2 157 4 11 39 13 158 11 l153 -3 0 -155z"/>
<path d="M2650 450 l0 -260 55 0 55 0 0 105 0 105 28 0 c22 0 49 -22 132 -105
l105 -105 72 0 73 0 0 50 0 50 -48 0 c-45 0 -51 4 -102 55 l-54 55 62 0 c114
0 142 31 142 161 0 79 -1 82 -34 115 l-34 34 -226 0 -226 0 0 -260z m418 103
l3 -53 -155 0 -156 0 0 55 0 56 153 -3 152 -3 3 -52z"/>
<path d="M3220 498 c0 -183 3 -218 18 -248 28 -56 43 -60 285 -60 l217 0 0 50
0 50 -205 0 -205 0 0 210 0 210 -55 0 -55 0 0 -212z"/>
<path d="M3800 450 l0 -260 215 0 c309 0 305 -3 305 262 0 135 -3 169 -18 198
-28 56 -43 60 -284 60 l-218 0 0 -260z m410 0 l0 -160 -155 0 -155 0 0 160 0
160 155 0 155 0 0 -160z"/>
<path d="M454 265 c-38 -19 -118 -65 -179 -103 -99 -60 -110 -70 -113 -99 -6
-63 -6 -63 461 -63 266 0 425 4 437 10 61 33 43 76 -78 192 -96 92 -117 98
-315 98 l-144 0 -69 -35z"/>
</g>
</svg>
